# xmcd
#
# Track frame offsets:
#	150
#	64692
#	146724
#	202692
#
# Disc length: 3625 seconds
#
# Revision: 0
# Processed by: cddbd v1.5.2PL0 Copyright (c) Steve Scherf et al.
# Submitted via: EZCDAudioConverter 2.1.4.1
#
DISCID=320e2704
DTITLE=Dmitri Shostakovich - Symphonie n° 11 - Yakov Kreizberg - Orchestre Phi
DTITLE=lharmonique De Monte-Carlo
DYEAR=2012
DGENRE=Classique
TTITLE0=Symphonie No. 11, Op. 103 - L'Année 1905 - 1. Adagio
TTITLE1=Symphonie No. 11, Op. 103 - L'Année 1905 - 2. Allegro
TTITLE2=Symphonie No. 11, Op. 103 - L'Année 1905 - 3. Adagio
TTITLE3=Symphonie No. 11, Op. 103 - L'Année 1905 - 4. Allegro Non Troppo
EXTD=
EXTT0=
EXTT1=
EXTT2=
EXTT3=
PLAYORDER=
